<svg width="8816" height="1586" viewBox="0 0 8816 1586" fill="none" xmlns="http://www.w3.org/2000/svg">
<path d="M7417.6 132.8C7447.47 132.8 7471.47 142.4 7489.6 161.6C7507.73 180.8 7516.8 205.866 7516.8 236.8C7516.8 267.733 7504.53 294.4 7480 316.8C7456.53 338.133 7429.87 348.8 7400 348.8C7371.2 348.8 7347.73 339.733 7329.6 321.6C7312.53 302.4 7304 277.333 7304 246.4C7304 215.467 7315.73 188.8 7339.2 166.4C7362.67 144 7388.8 132.8 7417.6 132.8ZM7499.2 531.2L7496 790.4C7496 873.6 7498.13 934.933 7502.4 974.4C7507.73 1012.8 7521.6 1049.07 7544 1083.2C7544 1093.87 7522.13 1110.93 7478.4 1134.4C7434.67 1157.87 7397.33 1169.6 7366.4 1169.6C7356.8 1169.6 7347.2 1153.6 7337.6 1121.6C7328 1089.6 7321.6 1059.2 7318.4 1030.4C7316.27 1001.6 7315.2 904.533 7315.2 739.2C7315.2 573.867 7318.93 483.733 7326.4 468.8C7350.93 449.6 7394.13 440 7456 440C7480.53 440 7495.47 443.2 7500.8 449.6L7499.2 531.2Z" fill="#2D679C"/>
<path d="M7658.76 872L7655.56 508.8C7655.56 445.866 7657.7 412.266 7661.96 408C7673.7 396.267 7693.96 386.133 7722.76 377.6C7751.56 368 7778.23 363.2 7802.76 363.2C7828.36 363.2 7841.16 365.867 7841.16 371.2C7837.96 400 7836.36 433.067 7836.36 470.4C7836.36 506.667 7837.43 524.8 7839.56 524.8C7841.7 524.8 7843.83 523.733 7845.96 521.6C7848.1 518.4 7851.3 514.133 7855.56 508.8C7860.9 502.4 7871.03 491.733 7885.96 476.8C7901.96 461.867 7919.03 449.066 7937.16 438.4C7983.03 408.533 8032.1 393.6 8084.36 393.6C8092.9 407.467 8097.16 428.8 8097.16 457.6C8097.16 518.4 8089.7 561.6 8074.76 587.2L8068.36 600L8047.56 596.8C7970.76 596.8 7910.5 628.267 7866.76 691.2C7849.7 716.8 7841.16 736 7841.16 748.8V889.6C7841.16 1017.6 7839.56 1083.2 7836.36 1086.4C7806.5 1115.2 7747.83 1129.6 7660.36 1129.6C7651.83 1129.6 7647.56 1128 7647.56 1124.8C7655.03 1083.2 7658.76 998.933 7658.76 872Z" fill="#2D679C"/>
<path d="M8577.44 401.6L8574.24 164.8C8574.24 98.6665 8575.84 63.9998 8579.04 60.7998C8591.84 47.9998 8612.64 35.7332 8641.44 23.9998C8671.3 11.1998 8699.57 4.7998 8726.24 4.7998C8752.9 4.7998 8766.24 6.93314 8766.24 11.1998C8757.7 188.266 8753.44 376.533 8753.44 576C8753.44 775.467 8756.64 894.4 8763.04 932.8C8770.5 990.4 8788.1 1033.07 8815.84 1060.8C8815.84 1071.47 8793.44 1088 8748.64 1110.4C8704.9 1133.87 8667.57 1145.6 8636.64 1145.6C8633.44 1145.6 8628.64 1141.33 8622.24 1132.8C8601.97 1106.13 8589.7 1069.87 8585.44 1024C8585.44 1020.8 8584.37 1019.2 8582.24 1019.2L8577.44 1022.4C8532.64 1086.4 8465.97 1118.4 8377.44 1118.4C8305.97 1118.4 8249.44 1090.13 8207.84 1033.6C8166.24 977.067 8145.44 913.6 8145.44 843.2C8145.44 722.667 8182.77 620.267 8257.44 536C8332.1 450.667 8438.77 405.867 8577.44 401.6ZM8580.64 569.6C8580.64 567.467 8574.77 566.4 8563.04 566.4H8556.64C8488.37 566.4 8434.5 588.267 8395.04 632C8356.64 675.733 8337.44 731.2 8337.44 798.4C8337.44 837.867 8346.5 870.4 8364.64 896C8383.84 920.533 8412.1 932.8 8449.44 932.8C8487.84 932.8 8518.24 916.267 8540.64 883.2C8564.1 850.133 8575.84 824 8575.84 804.8C8575.84 686.4 8577.44 608 8580.64 569.6Z" fill="#2D679C"/>
<path d="M6287.22 353.097L6346.39 425.18L6344.33 433.466C6333.65 476.726 6337.11 538.356 6353.19 593.774C6363.8 630.122 6374.59 654.064 6397.08 690.649C6411.55 714.022 6453.7 765.38 6471.61 781.223C6542.91 844.664 6623.22 870.169 6713.64 858.157C6738.61 854.817 6767.48 849.081 6784.25 841.724C6805.21 833.702 6818.47 826.862 6837.75 814.322C6850.45 806.056 6856.76 801.015 6863.55 796.197C6876.79 786.222 6883.99 780.435 6896.19 769.593C6949.45 722.863 6988.64 658.081 7014.58 574.395C7022.48 548.875 7026.09 530.078 7029.25 499.019C7032.61 463.839 7032 442.66 7026.91 419.693C7022.38 399.473 7016.4 387.6 7007.72 381.154C6991.62 369.113 6970.6 375.43 6965.37 393.861C6964.28 397.584 6963.46 408.996 6963.48 419.351C6963.4 429.592 6963.1 437.948 6962.69 437.908C6962.17 437.96 6959.23 432.08 6955.99 424.929C6946.89 404.88 6940.35 398.749 6925.16 396.323C6904.48 392.941 6889.86 404.753 6888.85 425.567C6888.22 437.204 6890.71 445.524 6899.27 461.689C6913.34 488.025 6915.39 506.137 6906.39 525.025C6897.32 544.528 6884.53 558.798 6865.73 571.028C6836.56 589.691 6814.7 596.132 6788.86 593.589C6779.02 592.62 6768.07 590.3 6761.98 587.941C6732.09 576.095 6703.83 550.847 6689.57 523.148C6674.95 494.998 6666.21 465.978 6656.6 414.302C6647.86 367.371 6643.38 356.163 6625.44 336.383C6611.71 321.263 6600.99 313.477 6580.69 304.128C6553.95 291.765 6523.07 286.759 6492.43 289.851L6477.8 291.309L6424.88 227.296L6371.85 163.375L6382.36 246.923C6387.99 292.823 6392.87 331.609 6392.93 333.064C6393.11 334.428 6392.6 335.413 6391.82 334.922C6389.94 334.012 6230.52 281.257 6229.18 281.228C6228.56 281.168 6254.68 313.452 6287.22 353.097Z" fill="#2D679C"/>
<path d="M6287.22 353.097L6346.39 425.18C6373.74 348.709 6408.18 324.43 6477.79 291.309L6424.88 227.296L6371.85 163.375L6382.36 246.923C6387.99 292.823 6392.87 331.609 6392.93 333.065C6393.11 334.428 6392.6 335.413 6391.82 334.922C6389.94 334.012 6230.52 281.257 6229.18 281.229C6228.56 281.168 6254.68 313.452 6287.22 353.097Z" fill="#F1DB67"/>
<circle cx="6516.93" cy="378.677" r="37" transform="rotate(-16.0918 6516.93 378.677)" fill="white"/>
<circle cx="6509.78" cy="371.38" r="14.1776" transform="rotate(-16.0918 6509.78 371.38)" fill="black"/>
<path d="M6098.42 507.687C6092.02 511.968 6087.97 518.26 6086.58 526.029C6085.9 529.683 6086.05 531.378 6087.39 536.378C6088.82 541.429 6089.51 542.902 6092.22 545.951C6095.99 550.45 6101.54 553.717 6107.06 554.879C6111.69 555.827 6109.93 555.998 6190.93 548.181C6218.89 545.518 6242.37 543.302 6243.2 543.305C6244.18 543.271 6245.48 544.204 6246.7 545.917C6247.78 547.437 6259.87 563.82 6273.66 582.315C6287.44 600.809 6306.59 626.623 6316.18 639.6C6325.77 652.578 6342.79 675.562 6353.99 690.599C6365.19 705.636 6382.22 728.621 6391.81 741.598C6401.4 754.575 6418.42 777.56 6429.62 792.597C6440.82 807.633 6457.85 830.618 6467.44 843.595C6500.17 887.73 6525.08 921.28 6547.84 951.861C6560.28 968.68 6570.7 983.094 6571 983.92C6571.39 985.098 6566.45 992.007 6547.21 1017.39C6533.88 1034.92 6520.99 1052.19 6518.61 1055.69C6504.98 1075.8 6498.55 1098.28 6500.55 1119.25C6501.15 1126.56 6504.85 1139.83 6507.85 1145.67C6511.49 1152.77 6518.87 1160.6 6529.32 1168.6C6539.45 1176.3 6552.83 1181.99 6565.26 1183.87C6568.39 1184.31 6571.18 1184.85 6571.36 1184.95C6571.61 1185.04 6570.11 1186.19 6568.04 1187.5C6546.75 1200.98 6537.58 1229.85 6547.45 1252.34C6552.23 1263.13 6558.54 1270.35 6568.67 1276.62C6600.71 1296.48 6642.7 1277.69 6649.34 1240.51C6652.39 1223.17 6646.78 1206.18 6633.89 1193.86C6629.22 1189.37 6621 1184.33 6615.05 1182.38C6612.63 1181.52 6610.69 1180.76 6610.72 1180.6C6610.84 1180.49 6697.44 1157.51 6803.28 1129.45C6909.14 1101.47 7007.46 1075.5 7021.75 1071.67C7046.42 1065.13 7047.77 1064.85 7046.39 1066.43C7045.57 1067.32 7043.41 1070.54 7041.57 1073.53C7025.66 1099.22 7034.64 1132.44 7061.37 1146.86C7092.71 1163.82 7131.88 1145.78 7139.13 1111.16C7141.53 1099.57 7140.03 1087.22 7135 1077.17C7131.76 1070.72 7124.28 1061.93 7118.58 1057.87C7114.58 1055.02 7105.78 1050.66 7104.73 1050.94C7104.38 1051.04 7104.09 1050.81 7103.99 1050.46C7103.88 1050.04 7112.8 1047.27 7126.49 1043.45C7152.49 1036.26 7152.54 1036.17 7157.81 1027.66C7161.87 1021.14 7162.73 1015.03 7160.81 1007.61C7159.48 1002.61 7158.87 1001.49 7155.81 997.937C7151.57 993.11 7145.98 990.003 7139.72 988.888L7135.2 988.062L7056.55 1008.61C7013.29 1019.82 6888.18 1052.82 6778.44 1081.84C6628.28 1121.63 6578.19 1134.67 6575.55 1134.7C6563.21 1134.84 6554.34 1126.5 6553.33 1114.01C6552.8 1107.81 6554.98 1097.34 6558.03 1091.55C6559.36 1088.92 6577.12 1064.77 6597.53 1037.87L6634.6 988.915L6708.91 962.59C6749.8 948.163 6838.58 916.749 6906.28 892.799C6973.97 868.849 7039.1 845.738 7051.04 841.558C7062.96 837.308 7074.23 832.928 7075.99 831.855C7082.95 827.724 7087.83 819.171 7088.1 810.874C7088.12 808.15 7086.83 796.271 7085.18 784.486C7083.46 772.721 7080.96 755.203 7079.59 745.607C7078.3 735.991 7074.83 711.788 7072.04 691.782C7069.17 671.795 7063.91 634.113 7060.27 608.144C7056.54 582.124 7052.06 549.893 7050.13 536.521C7047.98 521.173 7046.22 510.929 7045.33 508.751C7040.9 497.561 7028.18 490.932 7015.52 493.267C7013.09 493.768 6977.97 502.121 6937.45 511.998C6896.91 521.805 6851.14 532.937 6835.74 536.609C6820.37 540.351 6794.78 546.529 6778.89 550.332C6762.96 554.226 6737.15 560.46 6721.48 564.207C6705.75 568.044 6679.86 574.226 6663.85 578.138C6596.08 594.486 6460.72 627.284 6428.92 635.051C6410 639.667 6392.55 643.815 6390.1 644.245C6385.71 645.044 6385.69 644.974 6383.72 642.408C6382.58 640.977 6373.82 629.135 6364.23 616.158C6354.57 603.199 6338.68 581.645 6328.77 568.302C6318.86 554.959 6303.35 533.982 6294.25 521.704C6285.22 509.407 6276.65 498.27 6275.3 496.895C6272.33 493.992 6266.96 491.129 6262.81 490.28C6257.93 489.248 6265.24 488.647 6165.01 498.22C6133.68 501.258 6106.58 504.066 6104.84 504.608C6103.15 505.061 6100.2 506.454 6098.42 507.687ZM6467.19 666.609L6498.38 659.081L6510.51 703.527L6522.6 748.062L6499.08 754.364L6475.56 760.666L6462.57 743.166C6455.4 733.614 6442.03 715.537 6432.8 703.066C6423.58 690.596 6415.81 680.222 6415.51 679.927C6414.92 679.406 6428.6 675.816 6467.19 666.609ZM6566.8 642.634C6581.84 639.057 6596.21 635.509 6598.81 634.81L6603.6 633.527L6615.21 676.833L6626.81 720.138L6583.5 731.742L6540.2 743.345L6528.29 698.913L6516.41 654.552L6528 651.899C6534.32 650.431 6551.78 646.282 6566.8 642.634ZM6659.96 619.936C6676.76 615.887 6694.71 611.606 6699.91 610.44L6709.31 608.372L6720.52 650.199L6731.73 692.025L6688.42 703.629L6645.12 715.233L6633.61 672.279L6622.1 629.326L6625.83 628.326C6627.8 627.798 6643.23 623.966 6659.96 619.936ZM6813.32 583.068C6814.02 583.11 6816.57 591.785 6825.09 623.612L6835.94 664.101L6792.64 675.705L6749.33 687.308L6738.14 645.552L6726.97 603.866L6769.61 593.423C6793.14 587.723 6812.78 582.989 6813.32 583.068ZM6882.43 566.362C6897.19 562.86 6911.49 559.331 6914.17 558.614L6919.03 557.312L6929.59 596.744L6940.16 636.177L6896.85 647.781L6853.55 659.384L6842.7 618.895L6831.83 578.336L6843.77 575.589C6850.31 574.064 6867.69 569.935 6882.43 566.362ZM6990.5 540.124C7004.53 536.74 7010.54 535.507 7010.69 536.071C7010.82 536.564 7013.35 554.151 7016.3 575.321C7019.24 596.421 7021.73 613.868 7021.76 614.009C7021.8 614.149 7007.62 618.102 6990.15 622.781L6958.47 631.271L6947.96 592.05L6937.47 552.899L6953.99 548.925C6963 546.811 6979.45 542.856 6990.5 540.124ZM6538.07 805.803L6548.84 846.01L6544.49 846.95L6540.14 847.889L6530.96 835.63C6525.99 828.888 6514.3 813.152 6505.07 800.682C6495.77 788.23 6487.96 777.646 6487.61 777.209C6487.16 776.651 6491.33 775.308 6507.17 771.062L6527.31 765.666L6538.07 805.803ZM6642.28 777.879L6653.04 818.015L6609.73 829.619L6566.43 841.223L6555.67 801.086L6544.92 760.949L6588.22 749.346L6631.53 737.742L6642.28 777.879ZM6747 749.592L6757.51 789.645L6714.47 801.403L6671.34 813.11L6660.59 772.973L6649.83 732.836L6693.14 721.233L6736.45 709.629L6747 749.592ZM6851.41 721.842L6862.17 761.978L6818.86 773.582L6775.56 785.186L6764.8 745.049L6754.05 704.912L6797.35 693.309L6840.66 681.705L6851.41 721.842ZM6955.63 693.917L6966.38 734.054L6923.08 745.658L6879.77 757.261L6869.02 717.125L6858.26 676.988L6901.57 665.384L6944.87 653.781L6955.63 693.917ZM7024.7 634.808C7024.82 636.132 7027.27 653.438 7030.08 673.213C7032.89 692.989 7035.41 710.577 7035.64 712.253L7036.02 715.394L7010.32 722.281L6984.69 729.149L6973.94 689.012L6963.18 648.875L6993.81 640.668L7024.51 632.441L7024.7 634.808ZM6553.95 865.093C6554.31 866.431 6554.19 866.539 6553.4 865.845C6552.13 864.752 6551.92 863.977 6552.83 863.732C6553.26 863.619 6553.73 864.248 6553.95 865.093ZM6668.88 877.164L6680.02 918.709L6678.54 919.406C6677.68 919.863 6663.97 924.744 6648.03 930.299C6632.1 935.925 6617.41 941.371 6615.43 942.43C6613.45 943.489 6611.73 944.402 6611.71 944.332C6611.62 944.28 6605.36 935.845 6597.8 925.645L6584.05 906.991L6577.59 882.909L6571.14 858.827L6614.45 847.223L6657.75 835.619L6668.88 877.164ZM6772.67 844.826C6780.52 874.119 6782.5 882.344 6781.92 882.725C6781.01 883.271 6702.38 911.207 6699.36 912.018L6697.6 912.49L6686.86 871.592L6676.06 830.714L6719.37 819.11L6762.67 807.506L6772.67 844.826ZM6875.83 812.959L6884.77 846.336L6880.87 847.834C6878.68 848.649 6860.62 855.071 6840.69 862.073C6820.75 869.075 6803.46 875.219 6802.3 875.68L6800.07 876.655L6790.16 839.687L6780.28 802.789L6823.58 791.186L6866.89 779.582L6875.83 812.959ZM6978.93 780.88L6986.76 810.103L6985.29 810.799C6984.43 811.256 6966.99 817.438 6946.51 824.661C6926.03 831.884 6907.63 838.401 6905.71 839.14L6902.09 840.563L6893.28 807.679L6884.49 774.865L6927.8 763.262L6971.1 751.658L6978.93 780.88ZM7038.95 735.893C7039.08 737.217 7040.6 747.978 7042.32 759.743C7043.97 771.528 7045.61 783.012 7045.9 785.2L7046.44 789.205L7028.55 795.66C7018.71 799.203 7009.32 802.473 7007.7 802.907L7004.69 803.789L6997.05 775.271L6989.41 746.752L7014.05 740.149L7038.77 733.526L7038.95 735.893ZM6602.08 1201.32C6623.4 1205.12 6634.57 1227.64 6624.36 1246.45C6614.21 1265.17 6588.24 1268.51 6573.77 1252.83C6560.48 1238.43 6563.91 1215.48 6580.86 1205.2C6582.68 1204.11 6586.34 1202.83 6590.32 1201.91C6595.87 1200.65 6597.65 1200.55 6602.08 1201.32ZM7088.81 1069.55C7100.86 1070.32 7110.47 1076.88 7115.71 1088C7121.16 1099.3 7117.76 1114.77 7108.05 1123.34C7094.47 1135.2 7074.37 1133.95 7062.91 1120.49C7059.59 1116.55 7059.24 1115.81 7057.3 1108.56C7055.35 1101.3 7055.29 1100.49 7056.16 1095.58C7057.81 1086.53 7062.11 1080.02 7069.71 1074.89C7075.22 1071.23 7082.45 1069.21 7088.81 1069.55Z" fill="#D5D5D5"/>
<path d="M7077.25 1087.51C7074.02 1090.12 7072.84 1091.64 7071.35 1095.36C7067.58 1104.67 7073.5 1115.23 7083.49 1117.31C7096.02 1119.84 7106.82 1108.87 7103.61 1096.9C7102.59 1093.1 7099.28 1088.63 7096.1 1086.61C7090.92 1083.32 7082.06 1083.81 7077.25 1087.51Z" fill="#CDAC8D"/>
<path d="M6587.06 1218.78C6576.99 1225.71 6578.19 1242.29 6589.15 1247.43C6601.74 1253.27 6615.94 1242.89 6613.65 1229.55C6611.55 1217.2 6597.59 1211.59 6587.06 1218.78Z" fill="#CDAC8D"/>
<line x1="6020.25" y1="1054.62" x2="6405.25" y2="1054.62" stroke="#EDEDED" stroke-width="20" stroke-linecap="round"/>
<line x1="5906.25" y1="974.615" x2="6434.25" y2="974.615" stroke="#EDEDED" stroke-width="20" stroke-linecap="round"/>
<line x1="6080.25" y1="894.615" x2="6375.25" y2="894.615" stroke="#EDEDED" stroke-width="20" stroke-linecap="round"/>
<path d="M612.8 174.4C595.733 172.267 576 171.2 553.6 171.2C532.267 171.2 505.6 173.333 473.6 177.6C442.667 181.867 410.133 188.8 376 198.4C342.933 206.933 315.733 220.8 294.4 240C273.067 259.2 262.4 282.667 262.4 310.4C262.4 337.067 278.4 361.067 310.4 382.4C343.467 402.667 382.933 421.867 428.8 440C474.667 457.067 520.533 476.8 566.4 499.2C613.333 521.6 652.8 554.667 684.8 598.4C717.867 641.067 734.4 692.8 734.4 753.6C734.4 861.333 682.667 953.067 579.2 1028.8C476.8 1103.47 347.2 1140.8 190.4 1140.8C111.467 1140.8 52.8 1136.53 14.4 1128C4.8 1118.4 0 1061.33 0 956.8C0 851.2 2.13333 787.733 6.4 766.4C9.6 756.8 28.2667 745.067 62.4 731.2C96.5333 717.333 129.6 710.4 161.6 710.4C161.6 836.267 174.933 912.533 201.6 939.2C212.267 949.867 232.533 955.2 262.4 955.2C330.667 955.2 389.867 936 440 897.6C491.2 859.2 516.8 813.867 516.8 761.6C516.8 726.4 500.267 695.467 467.2 668.8C434.133 642.133 393.6 619.2 345.6 600C298.667 579.733 251.733 558.933 204.8 537.6C157.867 515.2 117.867 484.8 84.8 446.4C51.7333 408 35.2 362.667 35.2 310.4C35.2 232.533 81.6 161.6 174.4 97.6C268.267 32.5333 403.733 0 580.8 0C622.4 0 645.867 2.66666 651.2 7.99999C652.267 11.2 652.8 19.1999 652.8 32C652.8 43.7333 649.067 67.1999 641.6 102.4C634.133 137.6 624.533 161.6 612.8 174.4Z" fill="#2D679C"/>
<path d="M858.487 777.6L853.688 222.4C853.688 118.933 856.354 64.5333 861.688 59.2C874.488 46.4 895.288 34.1333 924.088 22.4C952.888 10.6666 980.621 4.79994 1007.29 4.79994C1033.95 4.79994 1047.29 6.93328 1047.29 11.2C1046.22 20.8 1044.09 90.6666 1040.89 220.8C1037.69 350.933 1036.09 436.267 1036.09 476.8V491.2C1036.09 496.533 1037.69 499.2 1040.89 499.2L1072.89 467.2C1084.62 456.533 1108.09 442.133 1143.29 424C1179.55 404.8 1213.15 395.2 1244.09 395.2C1276.09 395.2 1302.22 400.533 1322.49 411.2C1343.82 421.867 1361.42 434.667 1375.29 449.6C1389.15 464.533 1400.89 486.4 1410.49 515.2C1420.09 542.933 1427.02 569.067 1431.29 593.6C1436.62 617.067 1440.89 649.6 1444.09 691.2C1447.29 747.733 1448.89 819.2 1448.89 905.6L1442.49 1118.4C1439.29 1126.93 1421.15 1134.4 1388.09 1140.8C1355.02 1147.2 1327.82 1150.4 1306.49 1150.4L1253.69 1142.4C1264.35 1046.4 1269.69 954.133 1269.69 865.6C1269.69 777.067 1263.29 709.867 1250.49 664C1237.69 618.133 1211.55 595.2 1172.09 595.2C1146.49 595.2 1122.49 605.333 1100.09 625.6C1077.69 645.867 1062.22 666.133 1053.69 686.4L1039.29 716.8C1041.42 790.4 1042.49 869.333 1042.49 953.6C1042.49 1037.87 1039.82 1082.13 1034.49 1086.4C1002.49 1115.2 943.821 1129.6 858.487 1129.6C849.954 1129.6 845.688 1128 845.688 1124.8C854.221 1077.87 858.487 962.133 858.487 777.6Z" fill="#2D679C"/>
<path d="M2239.34 755.2C2239.34 856.533 2208.4 944.533 2146.54 1019.2C2085.74 1092.8 2002.54 1129.6 1896.94 1129.6C1792.4 1129.6 1710.27 1097.07 1650.54 1032C1590.8 966.933 1560.94 882.667 1560.94 779.2C1560.94 674.667 1597.74 582.4 1671.34 502.4C1746 421.333 1846.27 380.8 1972.14 380.8C2023.34 382.933 2051.07 386.133 2055.34 390.4C2059.6 394.667 2061.74 404.8 2061.74 420.8C2061.74 436.8 2060.14 454.4 2056.94 473.6C2072.94 473.6 2093.2 483.2 2117.74 502.4C2143.34 520.533 2164.14 539.2 2180.14 558.4C2196.14 577.6 2210 604.8 2221.74 640C2233.47 674.133 2239.34 712.533 2239.34 755.2ZM2005.74 643.2C1981.2 627.2 1957.2 619.2 1933.74 619.2H1920.94C1918.8 614.933 1917.74 605.867 1917.74 592C1917.74 578.133 1919.34 564.8 1922.54 552C1878.8 552 1837.74 571.733 1799.34 611.2C1762 650.667 1743.34 705.6 1743.34 776C1743.34 859.2 1770 916.8 1823.34 948.8C1843.6 961.6 1871.34 968 1906.54 968C1942.8 968 1976.4 951.467 2007.34 918.4C2039.34 885.333 2055.34 836.267 2055.34 771.2C2055.34 706.133 2038.8 663.467 2005.74 643.2Z" fill="#2D679C"/>
<path d="M2548.74 312L2547.14 387.2C2830.87 387.2 2972.74 497.067 2972.74 716.8C2972.74 776.533 2960.47 830.933 2935.94 880C2912.47 928 2883.14 966.4 2847.94 995.2C2812.74 1022.93 2774.34 1046.4 2732.74 1065.6C2661.27 1098.67 2597.27 1115.2 2540.74 1115.2V1139.2C2540.74 1299.2 2545 1405.87 2553.54 1459.2C2539.67 1473.07 2515.67 1483.73 2481.54 1491.2C2447.4 1499.73 2419.67 1504 2398.34 1504C2377 1504 2366.34 1502.4 2366.34 1499.2C2362.07 1465.07 2359.94 1394.67 2359.94 1288L2367.94 544C2367.94 456.533 2366.34 395.733 2363.14 361.6C2375.94 348.8 2397.27 336.533 2427.14 324.8C2458.07 313.067 2484.74 307.2 2507.14 307.2C2529.54 307.2 2543.4 308.8 2548.74 312ZM2540.74 857.6L2542.34 937.6C2607.4 937.6 2664.47 918.933 2713.54 881.6C2762.6 844.267 2787.14 790.4 2787.14 720C2787.14 604.8 2706.6 547.2 2545.54 547.2L2543.94 568C2543.94 581.867 2543.94 600 2543.94 622.4L2540.74 857.6Z" fill="#2D679C"/>
<path d="M3281.55 312L3279.95 387.2C3563.68 387.2 3705.55 497.067 3705.55 716.8C3705.55 776.533 3693.28 830.933 3668.75 880C3645.28 928 3615.95 966.4 3580.75 995.2C3545.55 1022.93 3507.15 1046.4 3465.55 1065.6C3394.08 1098.67 3330.08 1115.2 3273.55 1115.2V1139.2C3273.55 1299.2 3277.82 1405.87 3286.35 1459.2C3272.48 1473.07 3248.48 1483.73 3214.35 1491.2C3180.22 1499.73 3152.48 1504 3131.15 1504C3109.82 1504 3099.15 1502.4 3099.15 1499.2C3094.88 1465.07 3092.75 1394.67 3092.75 1288L3100.75 544C3100.75 456.533 3099.15 395.733 3095.95 361.6C3108.75 348.8 3130.08 336.533 3159.95 324.8C3190.88 313.067 3217.55 307.2 3239.95 307.2C3262.35 307.2 3276.22 308.8 3281.55 312ZM3273.55 857.6L3275.15 937.6C3340.22 937.6 3397.28 918.933 3446.35 881.6C3495.42 844.267 3519.95 790.4 3519.95 720C3519.95 604.8 3439.42 547.2 3278.35 547.2L3276.75 568C3276.75 581.867 3276.75 600 3276.75 622.4L3273.55 857.6Z" fill="#2D679C"/>
<path d="M3947.16 132.8C3977.03 132.8 4001.03 142.4 4019.16 161.6C4037.3 180.8 4046.36 205.867 4046.36 236.8C4046.36 267.733 4034.1 294.4 4009.56 316.8C3986.1 338.133 3959.43 348.8 3929.56 348.8C3900.76 348.8 3877.3 339.733 3859.16 321.6C3842.1 302.4 3833.56 277.333 3833.56 246.4C3833.56 215.467 3845.3 188.8 3868.76 166.4C3892.23 144 3918.36 132.8 3947.16 132.8ZM4028.76 531.2L4025.56 790.4C4025.56 873.6 4027.7 934.933 4031.96 974.4C4037.3 1012.8 4051.16 1049.07 4073.56 1083.2C4073.56 1093.87 4051.7 1110.93 4007.96 1134.4C3964.23 1157.87 3926.9 1169.6 3895.96 1169.6C3886.36 1169.6 3876.76 1153.6 3867.16 1121.6C3857.56 1089.6 3851.16 1059.2 3847.96 1030.4C3845.83 1001.6 3844.76 904.533 3844.76 739.2C3844.76 573.867 3848.5 483.733 3855.96 468.8C3880.5 449.6 3923.7 440 3985.56 440C4010.1 440 4025.03 443.2 4030.36 449.6L4028.76 531.2Z" fill="#2D679C"/>
<path d="M4378.73 728L4380.33 787.2V908.8C4380.33 1022.93 4378.19 1082.13 4373.92 1086.4C4360.06 1100.27 4336.06 1110.93 4301.92 1118.4C4267.79 1125.87 4239.53 1129.6 4217.12 1129.6C4195.79 1129.6 4185.12 1128 4185.12 1124.8C4192.59 1076.8 4196.33 997.867 4196.33 888L4191.52 528C4191.52 461.867 4194.19 426.133 4199.52 420.8C4211.26 409.067 4231.53 398.933 4260.33 390.4C4289.13 380.8 4315.79 376 4340.33 376C4365.93 376 4378.73 378.667 4378.73 384C4375.53 409.6 4373.92 435.2 4373.92 460.8C4373.92 486.4 4375.53 499.2 4378.73 499.2L4383.52 496C4388.86 488.533 4396.86 479.467 4407.52 468.8C4418.19 457.067 4440.59 442.133 4474.73 424C4509.93 404.8 4542.99 395.2 4573.92 395.2C4605.92 395.2 4632.59 401.067 4653.92 412.8C4676.32 423.467 4694.46 436.8 4708.33 452.8C4722.19 468.8 4733.92 491.733 4743.52 521.6C4754.19 551.467 4762.19 579.2 4767.52 604.8C4772.86 630.4 4777.13 664.533 4780.33 707.2C4783.53 765.867 4785.12 840.533 4785.12 931.2L4780.33 1118.4C4780.33 1125.87 4762.72 1132.8 4727.52 1139.2C4692.32 1146.67 4664.06 1150.4 4642.73 1150.4L4589.92 1142.4C4600.59 1046.4 4605.92 953.6 4605.92 864C4605.92 773.333 4600.06 705.6 4588.33 660.8C4576.59 614.933 4553.12 592 4517.92 592C4482.72 592 4453.92 601.6 4431.52 620.8C4410.19 640 4396.32 659.2 4389.92 678.4L4378.73 705.6V728Z" fill="#2D679C"/>
<path d="M5514.48 691.2L5517.67 1070.4C5517.67 1153.6 5506.48 1227.2 5484.08 1291.2C5461.68 1356.27 5434.48 1406.4 5402.48 1441.6C5370.48 1477.87 5333.68 1507.2 5292.08 1529.6C5224.88 1566.93 5157.14 1585.6 5088.88 1585.6C5085.67 1585.6 5079.27 1577.6 5069.67 1561.6C5060.07 1545.6 5051.01 1523.73 5042.48 1496C5033.94 1468.27 5029.67 1442.67 5029.67 1419.2H5060.08C5081.41 1419.2 5101.68 1417.07 5120.88 1412.8C5141.14 1409.6 5165.68 1399.47 5194.48 1382.4C5223.28 1365.33 5247.81 1342.93 5268.08 1315.2C5288.34 1287.47 5305.94 1246.4 5320.88 1192C5335.81 1137.6 5343.27 1074.13 5343.27 1001.6C5343.27 997.333 5342.74 995.2 5341.67 995.2L5336.88 1000C5292.08 1069.33 5222.21 1104 5127.27 1104C5055.81 1104 4998.74 1075.73 4956.08 1019.2C4913.41 962.667 4892.08 899.2 4892.08 828.8C4892.08 700.8 4933.14 595.2 5015.27 512C5097.41 428.8 5215.27 387.2 5368.88 387.2C5406.21 387.2 5424.88 389.867 5424.88 395.2C5428.07 413.333 5429.67 433.067 5429.67 454.4L5428.08 478.4H5445.67C5479.81 478.4 5502.74 481.6 5514.48 488V691.2ZM5340.08 556.8L5306.48 552C5238.21 552 5183.81 574.4 5143.27 619.2C5103.81 662.933 5084.08 717.867 5084.08 784C5084.08 817.067 5093.67 845.867 5112.88 870.4C5133.14 894.933 5161.94 907.2 5199.27 907.2C5237.67 907.2 5269.67 892.267 5295.27 862.4C5320.87 832.533 5333.67 808.533 5333.67 790.4C5333.67 668.8 5335.81 590.933 5340.08 556.8Z" fill="#2D679C"/>
</svg>
